<?xml version="1.0" encoding="utf-8"?>
<!-- Generator: Adobe Illustrator 18.1.1, SVG Export Plug-In . SVG Version: 6.00 Build 0)  -->
<!DOCTYPE svg PUBLIC "-//W3C//DTD SVG 1.1//EN" "http://www.w3.org/Graphics/SVG/1.1/DTD/svg11.dtd">
<svg version="1.1" id="Calque_1" xmlns="http://www.w3.org/2000/svg" xmlns:xlink="http://www.w3.org/1999/xlink" x="0px" y="0px"
	 viewBox="0 0 48 48" enable-background="new 0 0 48 48" xml:space="preserve">
<g>
	<path fill="#FFFFFF" d="M36.8,20C30.6,6.7,27.4,1.6,17.3,1.8c-3.6,0.1-2.7-2.6-5.5-1.6c-2.7,1-0.4,2.5-3.2,4.8
		c-7.9,6.5-7.1,12.4-3.5,26.7c1.5,6-3.7,6.3-1.6,12.1c1.5,4.2,12.7,6,24.5,1.6c11.8-4.4,19.2-13.1,17.7-17.3
		C43.6,22.4,39.4,25.6,36.8,20z M26.7,41.9c-10.5,3.9-19.2,1.6-19.5,0.6c-0.6-1.8,3.4-7.6,15.4-12.1c12-4.5,18.7-2.8,19.5-0.8
		C42.5,30.7,37.2,38,26.7,41.9z M23.3,32.4c-5.5,2-9.3,4.4-11.8,6.5c1.7,1.6,5,2,8.3,0.8c4.1-1.5,6.7-5.1,5.7-7.9c0,0,0-0.1,0-0.1
		C24.7,31.9,24,32.1,23.3,32.4z"/>
</g>
</svg>
